REM DIRINDEX 1\2,1\3,1\4,1\5
REM DIRNAME "folder01","folder02","folder03","folder04","folder05"
TITLE ""
FILE "1Q_t_0801-0809.mp3" MP3
  TRACK 01 AUDIO
    TITLE "0:"
    INDEX 01 00:00:00
  TRACK 02 AUDIO
    TITLE "2:cjc172_3350"
    INDEX 01 00:00:14
  TRACK 03 AUDIO
    TITLE "0:"
    INDEX 01 00:01:51
  TRACK 04 AUDIO
    TITLE "2:cjc172_3351"
    INDEX 01 00:02:27
  TRACK 05 AUDIO
    TITLE "0:"
    INDEX 01 00:03:30
  TRACK 06 AUDIO
    TITLE "3:cjc172_3352"
    INDEX 01 00:03:73
  TRACK 07 AUDIO
    TITLE "0:"
    INDEX 01 00:05:21
  TRACK 08 AUDIO
    TITLE "4:cjc172_3353"
    INDEX 01 00:05:31
  TRACK 09 AUDIO
    TITLE "0:"
    INDEX 01 00:08:29
  TRACK 10 AUDIO
    TITLE "5:cjc172_3354"
    INDEX 01 00:08:35
  TRACK 11 AUDIO
    TITLE "0:"
    INDEX 01 00:15:27
  TRACK 12 AUDIO
    TITLE "3:cjc172_3355"
    INDEX 01 00:15:69
  TRACK 13 AUDIO
    TITLE "0:"
    INDEX 01 00:17:28
  TRACK 14 AUDIO
    TITLE "4:cjc172_3356"
    INDEX 01 00:17:40
  TRACK 15 AUDIO
    TITLE "0:"
    INDEX 01 00:20:15
  TRACK 16 AUDIO
    TITLE "5:cjc172_3357"
    INDEX 01 00:20:23
  TRACK 17 AUDIO
    TITLE "0:"
    INDEX 01 00:26:37
  TRACK 18 AUDIO
    TITLE "3:cjc172_3358"
    INDEX 01 00:27:07
  TRACK 19 AUDIO
    TITLE "0:"
    INDEX 01 00:28:16
  TRACK 20 AUDIO
    TITLE "4:cjc172_3359"
    INDEX 01 00:28:26
  TRACK 21 AUDIO
    TITLE "0:"
    INDEX 01 00:30:27
  TRACK 22 AUDIO
    TITLE "5:cjc172_3360"
    INDEX 01 00:30:35
  TRACK 23 AUDIO
    TITLE "0:"
    INDEX 01 00:36:28
  TRACK 24 AUDIO
    TITLE "3:cjc172_3361"
    INDEX 01 00:36:75
  TRACK 25 AUDIO
    TITLE "0:"
    INDEX 01 00:38:13
  TRACK 26 AUDIO
    TITLE "4:cjc172_3362"
    INDEX 01 00:38:21
  TRACK 27 AUDIO
    TITLE "0:"
    INDEX 01 00:42:20
  TRACK 28 AUDIO
    TITLE "5:cjc172_3363"
    INDEX 01 00:42:26
  TRACK 29 AUDIO
    TITLE "0:"
    INDEX 01 00:48:25
  TRACK 30 AUDIO
    TITLE "3:cjc172_3364"
    INDEX 01 00:48:68
  TRACK 31 AUDIO
    TITLE "0:"
    INDEX 01 00:50:06
  TRACK 32 AUDIO
    TITLE "4:cjc172_3365"
    INDEX 01 00:50:14
  TRACK 33 AUDIO
    TITLE "0:"
    INDEX 01 00:52:09
  TRACK 34 AUDIO
    TITLE "5:cjc172_3366"
    INDEX 01 00:52:17
  TRACK 35 AUDIO
    TITLE "0:"
    INDEX 01 00:58:21
  TRACK 36 AUDIO
    TITLE "3:cjc172_3367"
    INDEX 01 00:58:67
  TRACK 37 AUDIO
    TITLE "0:"
    INDEX 01 00:59:66
  TRACK 38 AUDIO
    TITLE "4:cjc172_3368"
    INDEX 01 01:00:01
  TRACK 39 AUDIO
    TITLE "0:"
    INDEX 01 01:05:33
  TRACK 40 AUDIO
    TITLE "5:cjc172_3369"
    INDEX 01 01:05:41
  TRACK 41 AUDIO
    TITLE "0:"
    INDEX 01 01:12:04
  TRACK 42 AUDIO
    TITLE "3:cjc172_3370"
    INDEX 01 01:12:49
  TRACK 43 AUDIO
    TITLE "0:"
    INDEX 01 01:14:09
  TRACK 44 AUDIO
    TITLE "4:cjc172_3371"
    INDEX 01 01:14:17
  TRACK 45 AUDIO
    TITLE "0:"
    INDEX 01 01:17:09
  TRACK 46 AUDIO
    TITLE "5:cjc172_3372"
    INDEX 01 01:17:15
  TRACK 47 AUDIO
    TITLE "0:"
    INDEX 01 01:22:40
  TRACK 48 AUDIO
    TITLE "3:cjc172_3373"
    INDEX 01 01:23:12
  TRACK 49 AUDIO
    TITLE "0:"
    INDEX 01 01:24:09
  TRACK 50 AUDIO
    TITLE "4:cjc172_3374"
    INDEX 01 01:24:19
  TRACK 51 AUDIO
    TITLE "0:"
    INDEX 01 01:26:69
  TRACK 52 AUDIO
    TITLE "5:cjc172_3375"
    INDEX 01 01:26:75
  TRACK 53 AUDIO
    TITLE "0:"
    INDEX 01 01:33:06
  TRACK 54 AUDIO
    TITLE "3:cjc172_3376"
    INDEX 01 01:33:57
  TRACK 55 AUDIO
    TITLE "0:"
    INDEX 01 01:34:58
  TRACK 56 AUDIO
    TITLE "4:cjc172_3377"
    INDEX 01 01:34:68
  TRACK 57 AUDIO
    TITLE "0:"
    INDEX 01 01:36:53
  TRACK 58 AUDIO
    TITLE "5:cjc172_3378"
    INDEX 01 01:36:61
  TRACK 59 AUDIO
    TITLE "0:"
    INDEX 01 01:43:63
